<svg width="980" height="220" viewBox="0 0 980 220" fill="none" xmlns="http://www.w3.org/2000/svg" role="img" aria-label="BTC Signal Desk">
  <defs>
    <linearGradient id="g1" x1="44" y1="42" x2="936" y2="170" gradientUnits="userSpaceOnUse">
      <stop stop-color="#F5C96A"/>
      <stop offset="0.42" stop-color="#7AE7FF"/>
      <stop offset="0.78" stop-color="#8F7CFF"/>
      <stop offset="1" stop-color="#F5C96A"/>
    </linearGradient>
    <linearGradient id="g2" x1="104" y1="42" x2="880" y2="180" gradientUnits="userSpaceOnUse">
      <stop stop-color="#FFFFFF" stop-opacity="0.96"/>
      <stop offset="1" stop-color="#DDE7F7" stop-opacity="0.72"/>
    </linearGradient>
    <filter id="blur" x="-20%" y="-40%" width="140%" height="180%">
      <feGaussianBlur stdDeviation="12"/>
    </filter>
    <filter id="shadow" x="-40%" y="-40%" width="180%" height="180%">
      <feDropShadow dx="0" dy="14" stdDeviation="16" flood-color="#000000" flood-opacity="0.45"/>
    </filter>
  </defs>

  <rect x="18" y="20" width="944" height="180" rx="36" fill="#05070D" fill-opacity="0.42"/>
  <rect x="18" y="20" width="944" height="180" rx="36" stroke="url(#g1)" stroke-opacity="0.25"/>

  <g filter="url(#blur)" opacity="0.75">
    <circle cx="112" cy="102" r="34" fill="#7AE7FF" fill-opacity="0.32"/>
    <circle cx="896" cy="96" r="48" fill="#8F7CFF" fill-opacity="0.22"/>
  </g>

  <g filter="url(#shadow)">
    <circle cx="108" cy="100" r="42" fill="url(#g1)" fill-opacity="0.18" stroke="url(#g1)" stroke-opacity="0.75" stroke-width="2.2"/>
    <circle cx="108" cy="100" r="24" stroke="url(#g1)" stroke-opacity="0.9" stroke-width="3"/>
    <path d="M95 90H120L110 100H124L98 126L107 108H94L95 90Z" fill="url(#g1)"/>
  </g>

  <g filter="url(#shadow)">
    <text x="176" y="105" fill="url(#g2)" font-size="62" font-weight="700" font-family="Inter, Segoe UI, Arial, sans-serif" letter-spacing="1">
      BTC SIGNAL DESK
    </text>
    <text x="178" y="150" fill="#A7B4C9" font-size="20" font-weight="500" font-family="Inter, Segoe UI, Arial, sans-serif" letter-spacing="1.8">
      MISSION CONTROL FOR MARKET REGIMES
    </text>
  </g>

  <g opacity="0.8">
    <path d="M744 54H896" stroke="url(#g1)" stroke-width="2" stroke-linecap="round"/>
    <path d="M760 70H930" stroke="#7AE7FF" stroke-opacity="0.28" stroke-width="1.5" stroke-linecap="round"/>
    <path d="M776 86H916" stroke="#F5C96A" stroke-opacity="0.22" stroke-width="1.4" stroke-linecap="round"/>
    <path d="M792 102H900" stroke="#8F7CFF" stroke-opacity="0.25" stroke-width="1.4" stroke-linecap="round"/>
  </g>
</svg>
